<?xml version="1.0" encoding="utf-8"?>
<!-- Generator: Adobe Illustrator 23.0.3, SVG Export Plug-In . SVG Version: 6.00 Build 0)  -->
<svg version="1.1" id="Layer_1" xmlns="http://www.w3.org/2000/svg" xmlns:xlink="http://www.w3.org/1999/xlink" x="0px" y="0px"
	 viewBox="0 0 595.28 841.89" style="enable-background:new 0 0 595.28 841.89;" xml:space="preserve">
<style type="text/css">
	.st0{fill:#FFFFFF;}
</style>
<g>
	<path class="st0" d="M184.37,393.65c0.31-0.85,0.54-2.01,2.16-2.16c1.54-0.15,3.32,0.69,4.24,1.62
		c-1.77,7.17-3.08,13.81-4.24,20.59c4.94-5.4,19.75-18.9,24.91-18.9c1.31,0,2.39,1,2,2.47c-4.94,4.86-20.59,16.43-24.91,22.37
		c5.48,7.25,12.11,13.58,19.67,23.99c0.85,1.23,0.39,1.93,0,2.54c-0.92,1.39-2.54,1.77-3.16,2.24c-0.46,0.31-1.47,0.54-2.47-0.77
		c-6.4-8.25-13.96-16.43-17.82-21.21c-0.54,5.01-1,10.34-1.39,16.04c0,0,2.16-0.39,1.47,1.08c-0.46,0.85-1.77,4.55-1.77,4.55
		c-0.77,2.08-6.25-0.85-6.79-1.62C177.66,430.91,180.05,406.07,184.37,393.65z"/>
	<path class="st0" d="M223.39,442.63c-1.23,2.7-4.4,5.63-8.18,5.63c-5.71,0-10.03-5.86-10.03-15.27c0-13.96,6.4-27.85,15.66-27.85
		c5.25,0,7.56,3.39,7.56,5.71c0,0.39-0.08,0.85-0.08,0.85c0.69,0.23,3.7,0.31,3.24,2.08c-2.39,8.64-4.32,16.66-4.32,22.75
		c0,3.55,0.62,5.94,3.24,5.94c4.01,0,5.09-5.01,5.63-9.64c0,0,2.24-0.23,2.24,2.08c0,4.09-3.16,12.8-9.02,12.8
		c-3.55,0-5.4-3.24-5.55-5.09H223.39z M214.45,443.02c4.55,0,8.72-18.44,8.72-21.21c0,0-2.47-0.46-3.55-1.7
		c1.62-2.24,2.62-4.94,2.62-7.71c0-0.69,0-2.55-1.46-2.55c-5.63,0-9.1,18.44-9.1,26.53C211.67,441.17,212.44,443.02,214.45,443.02z"
		/>
	<path class="st0" d="M243.14,423.5c2.01-4.94,3.55-11.88,4.63-15.74c0.54-1.85,2.55-2.47,4.78-1.93c1.62,0.39,2.47,1.16,2.47,2.7
		c0,2.85-3.32,7.4-3.32,13.04c0,1.08,1.08,2.31,2.31,2.31c3.08,0,4.01-4.55,4.47-4.55c0.54,0,1.23,0.46,1.23,1
		c-0.15,2.7-2.55,7.1-6.56,7.1c-4.55,0-5.71-3.01-6.02-6.4c-1.39,4.17-5.09,13.04-5.25,25.69c-1.77,1.08-6.79-1.08-6.79-2.78
		c0-2.24,0.85-5.09,1.46-21.83c0.23-7.64,0.46-15.04,3.09-15.04c2,0,4.4,1.77,4.4,1.77c-0.23,4.17-1.23,9.87-1.47,14.42
		L243.14,423.5z"/>
	<path class="st0" d="M267.74,404.45c2.93,0,6.33,2.31,6.33,9.41c0,9.87-2.7,18.82-8.79,18.82c-3.32,0-4.47-3.24-4.47-3.24
		s-1.39,4.09-1.39,10.34c0,3.63,1.39,6.33,5.32,6.33c5.94,0,10.72-9.64,10.72-14.73c0,0,0-0.85,1.08-0.85c1.23,0,2.24,1.54,2.24,3.7
		c0,6.71-4.17,18.05-12.73,18.05c-5.94,0-11.49-5.48-11.49-15.12C254.55,424.28,260.96,404.45,267.74,404.45z M263.65,428.06
		c2.7,0,5.01-8.72,5.01-15.81c0-3.24-0.54-3.63-0.93-3.63c-0.31,0-0.69,0.31-1.16,1.39c-1.85,4.17-4.01,10.49-4.86,16.12
		C261.73,426.13,262.11,428.06,263.65,428.06z"/>
	<path class="st0" d="M289.88,421.19c-3.16,6.87-7.25,19.98-7.17,27.23c0,0-1,1.16-2.62,1.16c-3.47,0-4.4-4.17-4.4-10.03
		c0-16.43,2-31.93,6.71-31.93c0.93,0,2.7,0.15,2.47,2.08c-0.93,7.41-3.08,14.58-3.08,22.21h0.31c2.93-8.56,5.86-17.74,10.18-26.07
		c0.31-0.69,1-0.69,1.7-0.69c2.08,0,5.63,1.39,5.4,3.86c-0.62,7.87-4.71,17.89-4.71,28.15c0,3.93,1,5.86,3.16,5.86
		c2.55,0,4.09-4.09,4.71-6.09c0,0,1.7,0.15,1.7,2.08c0,3.32-3.32,9.26-8.72,9.26c-5.25,0-6.71-5.55-6.71-11.8
		c0-3.32,1.23-11.34,2.01-15.27H289.88z"/>
	<path class="st0" d="M318.18,444.41c1.54-13.96,5.4-43.35,8.18-53.14c1.7-1.23,5.09,0.85,6.25,2.01
		c-2.16,9.72-6.56,33.94-8.25,49.37c8.41-2.16,14.35-2.7,18.28-2.47c1,0.08,4.47,5.86,2.16,5.86c-5.71,0.15-11.8,0.85-20.98,3.01
		c-0.08,0.77-0.08,1.47-0.08,2.16c-0.08,1.77-3.55,0.23-5.25-0.85c-0.15,0-0.31,0-0.38,0.08c-2.01,0.46-4.86-4.47-3.47-4.94
		C315.87,445.1,317.03,444.72,318.18,444.41z"/>
	<path class="st0" d="M358.68,442.63c-1.23,2.7-4.4,5.63-8.18,5.63c-5.71,0-10.03-5.86-10.03-15.27c0-13.96,6.4-27.85,15.66-27.85
		c5.25,0,7.56,3.39,7.56,5.71c0,0.39-0.08,0.85-0.08,0.85c0.69,0.23,3.7,0.31,3.24,2.08c-2.39,8.64-4.32,16.66-4.32,22.75
		c0,3.55,0.62,5.94,3.24,5.94c4.01,0,5.09-5.01,5.63-9.64c0,0,2.24-0.23,2.24,2.08c0,4.09-3.16,12.8-9.02,12.8
		c-3.55,0-5.4-3.24-5.55-5.09H358.68z M349.73,443.02c4.55,0,8.72-18.44,8.72-21.21c0,0-2.47-0.46-3.55-1.7
		c1.62-2.24,2.62-4.94,2.62-7.71c0-0.69,0-2.55-1.46-2.55c-5.63,0-9.1,18.44-9.1,26.53C346.95,441.17,347.72,443.02,349.73,443.02z"
		/>
	<path class="st0" d="M370.17,434.07c0.31-11.8,3.93-32.7,5.48-43.66c0.23-1.85,1-2.08,1.39-2.08c1.47,0,3.16,0.31,4.47,1.08
		c1.23,0.69,1,1.31,0.77,2.55c-1.54,8.48-3.86,23.6-4.63,28.08c3.55-4.32,12.57-14.19,18.13-14.19c1.31,0,2.39,1,2,2.47
		c-4.55,3.7-12.8,10.64-17.2,16.58c5.48,7.33,10.88,13.5,17.35,23.45c0.85,1.31,0.62,2.16,0,2.54c-0.93,0.62-2.24,0.93-3.47,1.31
		c-0.54,0.15-1.54,0.69-2.47-0.77c-5.55-8.87-12.03-17.59-15.27-21.29c-0.46,5.01-0.54,11.03-0.23,16.28
		c0.08,1.93-0.54,2.54-1.08,2.47c-1.16-0.23-3.01-0.38-3.47-0.54c-1.46-0.54-1.62-0.85-1.77-2.55
		C370.09,443.71,370.01,440.78,370.17,434.07z"/>
	<path class="st0" d="M407.04,404.45c2.93,0,6.33,2.31,6.33,9.41c0,9.87-2.7,18.82-8.79,18.82c-3.32,0-4.47-3.24-4.47-3.24
		s-1.39,4.09-1.39,10.34c0,3.63,1.39,6.33,5.32,6.33c5.94,0,10.72-9.64,10.72-14.73c0,0,0-0.85,1.08-0.85c1.23,0,2.24,1.54,2.24,3.7
		c0,6.71-4.17,18.05-12.73,18.05c-5.94,0-11.49-5.48-11.49-15.12C393.85,424.28,400.25,404.45,407.04,404.45z M402.95,428.06
		c2.7,0,5.01-8.72,5.01-15.81c0-3.24-0.54-3.63-0.93-3.63c-0.31,0-0.69,0.31-1.16,1.39c-1.85,4.17-4.01,10.49-4.86,16.12
		C401.02,426.13,401.41,428.06,402.95,428.06z"/>
</g>
</svg>
