<?xml version="1.0" encoding="utf-8"?>
<!-- Generator: Adobe Illustrator 23.0.3, SVG Export Plug-In . SVG Version: 6.00 Build 0)  -->
<svg version="1.1" id="Layer_1" xmlns="http://www.w3.org/2000/svg" xmlns:xlink="http://www.w3.org/1999/xlink" x="0px" y="0px"
	 viewBox="0 0 243.68 33.54" style="enable-background:new 0 0 243.68 33.54;" xml:space="preserve">
<style type="text/css">
	.st0{fill:#FF6608;}
</style>
<polygon class="st0" points="17.14,0 3.64,15.95 3.64,0 0,0 0,33.54 3.64,33.54 3.64,19.97 5.05,18.36 17.25,33.54 22.05,33.54 
	7.41,15.77 21.45,0 "/>
<path class="st0" d="M37.09,4.2l4.82,15.32h-9.83L37.09,4.2z M35.59,0L24.12,33.54h3.62l3.6-11.43h11.32l3.57,11.43h4.02L39.13,0
	H35.59z"/>
<path class="st0" d="M68.85,9.52c0,2.04-0.78,3.71-2.34,5.01c-1.56,1.3-3.78,1.95-6.65,1.95h-3.49V2.89h4.07
	c3,0,5.15,0.52,6.45,1.56C68.19,5.49,68.85,7.18,68.85,9.52 M70.48,15.13c1.41-1.67,2.11-3.57,2.11-5.72c0-2.9-0.91-5.19-2.72-6.88
	C68.06,0.84,65.38,0,61.83,0h-9.1v33.54h3.64v-14.3c3.6-0.03,5.49-0.06,5.67-0.09l8.65,14.38h4.32l-9.38-15.09
	C67.46,17.91,69.08,16.8,70.48,15.13"/>
<path class="st0" d="M78.67,33.54h18.56v-2.95H78.67V33.54z M78.67,14.38v2.81l13.2,0v-2.8H78.67z M78.67,0v2.95h3.64h14.28V0H78.67
	z"/>
<polygon class="st0" points="121.36,0 121.36,27.67 104.69,0 101.05,0 101.07,33.54 104.69,33.54 104.69,5.99 121.51,33.54 
	125,33.54 125,0 "/>
<path class="st0" d="M78.67,33.54h18.56v-2.95H78.67V33.54z M78.67,14.38v2.81l13.2,0v-2.8H78.67z M78.67,0v2.95h3.64h14.28V0H78.67
	z"/>
<path class="st0" d="M82.31,2.95"/>
<path class="st0" d="M82.31,2.95"/>
<path class="st0" d="M82.31,33.39"/>
<path class="st0" d="M82.31,33.39"/>
<polygon class="st0" points="151.04,0 151.04,33.54 169.79,33.54 169.79,30.59 154.68,30.59 154.68,0 "/>
<path class="st0" d="M186.12,0h-3.53l-11.47,33.54h3.62l3.6-11.43h11.32l3.57,11.43h4.02L186.12,0z M179.08,19.52l5.01-15.32
	l4.82,15.32H179.08z"/>
<polygon class="st0" points="216.87,0 203.36,15.95 203.36,0 199.72,0 199.72,33.54 203.36,33.54 203.36,19.97 204.77,18.36 
	216.97,33.54 221.77,33.54 207.13,15.77 221.17,0 "/>
<rect x="225.12" y="30.59" class="st0" width="18.56" height="2.95"/>
<rect x="225.12" y="14.38" class="st0" width="13.2" height="2.81"/>
<polygon class="st0" points="225.12,0 225.12,2.95 228.76,2.95 243.03,2.95 243.03,0 "/>
</svg>
