<svg id="Layer_1" data-name="Layer 1" xmlns="http://www.w3.org/2000/svg" viewBox="0 0 243.68 33.54"><defs><style>.cls-1{fill:#ff6608;}</style></defs><title>karen-lake-text-orangeArtboard 1@x2</title><polygon class="cls-1" points="17.14 0 3.64 15.95 3.64 0 0 0 0 33.54 3.64 33.54 3.64 19.97 5.05 18.36 17.25 33.54 22.05 33.54 7.41 15.77 21.45 0 17.14 0"/><path class="cls-1" d="M37.09,4.2l4.82,15.32H32.08ZM35.59,0,24.12,33.54h3.62l3.6-11.43H42.66l3.57,11.43h4L39.13,0Z"/><path class="cls-1" d="M68.85,9.52a6.19,6.19,0,0,1-2.35,5,10.11,10.11,0,0,1-6.64,2H56.37V2.89h4.06q4.5,0,6.46,1.56c1.3,1,2,2.73,2,5.07m1.63,5.61a8.59,8.59,0,0,0,2.11-5.71,8.92,8.92,0,0,0-2.72-6.88C68.06.84,65.38,0,61.83,0h-9.1V33.54h3.64V19.24c3.59,0,5.48,0,5.67-.08l8.65,14.38H75L65.64,18.45a10,10,0,0,0,4.84-3.32"/><path class="cls-1" d="M78.67,33.54H97.23V30.59H78.67Zm0-19.16v2.81h13.2V14.38ZM78.67,0V3H96.59V0Z"/><polygon class="cls-1" points="121.36 0 121.36 27.68 104.69 0 101.05 0 101.07 33.54 104.69 33.54 104.69 5.99 121.51 33.54 125 33.54 125 0 121.36 0"/><path class="cls-1" d="M78.67,33.54H97.23V30.59H78.67Zm0-19.16v2.81h13.2V14.38ZM78.67,0V3H96.59V0Z"/><polygon class="cls-1" points="151.04 0 151.04 33.54 169.79 33.54 169.79 30.59 154.68 30.59 154.68 0 151.04 0"/><path class="cls-1" d="M186.12,0h-3.53L171.11,33.54h3.62l3.6-11.43h11.32l3.58,11.43h4Zm-7,19.52,5-15.32,4.81,15.32Z"/><polygon class="cls-1" points="216.87 0 203.36 15.95 203.36 0 199.72 0 199.72 33.54 203.36 33.54 203.36 19.97 204.77 18.36 216.97 33.54 221.77 33.54 207.13 15.77 221.17 0 216.87 0"/><rect class="cls-1" x="225.12" y="30.59" width="18.56" height="2.95"/><rect class="cls-1" x="225.12" y="14.38" width="13.2" height="2.81"/><polygon class="cls-1" points="225.12 0 225.12 2.95 228.76 2.95 243.03 2.95 243.03 0 225.12 0"/></svg>