<?xml version="1.0" encoding="utf-8"?>
<!-- Generator: Adobe Illustrator 23.0.3, SVG Export Plug-In . SVG Version: 6.00 Build 0)  -->
<svg version="1.1" id="Layer_1" xmlns="http://www.w3.org/2000/svg" xmlns:xlink="http://www.w3.org/1999/xlink" x="0px" y="0px"
	 viewBox="0 0 595.28 841.89" style="enable-background:new 0 0 595.28 841.89;" xml:space="preserve">
<style type="text/css">
	.st0{fill:none;}
	.st1{clip-path:url(#SVGID_2_);}
	.st2{clip-path:url(#SVGID_4_);}
	.st3{clip-path:url(#SVGID_4_);fill:#C4161C;}
	.st4{clip-path:url(#SVGID_6_);fill:#C4161C;}
</style>
<polygon points="234.03,436.16 234.03,472.89 254.56,472.89 254.56,469.66 238.01,469.66 238.01,436.16 "/>
<path d="M270.21,440.76l5.27,16.78h-10.76L270.21,440.76z M268.57,436.16l-12.56,36.73h3.96l3.94-12.52h12.4l3.91,12.52h4.41
	l-12.19-36.73H268.57z"/>
<polygon points="306.11,436.16 291.32,453.62 291.32,436.16 287.34,436.16 287.34,472.89 291.32,472.89 291.32,458.03 
	292.87,456.27 306.23,472.89 311.48,472.89 295.45,453.44 310.82,436.16 "/>
<polygon points="247.77,369.32 232.98,386.78 232.98,369.32 229,369.32 229,406.04 232.98,406.04 232.98,391.18 234.53,389.43 
	247.89,406.04 253.14,406.04 237.11,386.59 252.49,369.32 "/>
<path d="M269.62,373.91l5.27,16.78h-10.76L269.62,373.91z M267.98,369.32l-12.56,36.73h3.96l3.94-12.52h12.4l3.91,12.52h4.41
	l-12.19-36.73H267.98z"/>
<path d="M304.39,379.75c0,2.24-0.86,4.06-2.57,5.49s-4.14,2.13-7.28,2.13h-3.82v-14.88h4.45c3.28,0,5.64,0.57,7.07,1.71
	C303.67,375.33,304.39,377.19,304.39,379.75 M306.18,385.89c1.54-1.83,2.31-3.91,2.31-6.26c0-3.17-0.99-5.68-2.98-7.54
	c-1.98-1.85-4.92-2.78-8.81-2.78h-9.96v36.73h3.98v-15.66c3.94-0.03,6.01-0.06,6.21-0.09l9.47,15.75h4.73l-10.27-16.52
	C302.87,388.93,304.64,387.72,306.18,385.89"/>
<rect x="229" y="369.32" class="st0" width="136.88" height="103.57"/>
<rect x="315.15" y="402.82" width="20.32" height="3.23"/>
<polygon points="315.15,369.32 315.15,372.55 319.13,372.55 334.76,372.55 334.76,369.32 "/>
<polygon points="361.89,369.32 361.89,399.62 343.63,369.32 339.65,369.32 339.67,406.04 343.63,406.04 343.63,375.88 
	362.06,406.04 365.88,406.04 365.88,369.32 "/>
<g>
	<defs>
		<rect id="SVGID_1_" x="229" y="369.32" width="136.88" height="103.57"/>
	</defs>
	<clipPath id="SVGID_2_">
		<use xlink:href="#SVGID_1_"  style="overflow:visible;"/>
	</clipPath>
	<path class="st1" d="M319.13,372.55"/>
</g>
<rect x="315.15" y="469.66" width="20.32" height="3.23"/>
<rect x="315.15" y="451.91" width="9.73" height="3.07"/>
<polygon points="315.15,436.16 315.15,439.4 319.13,439.4 334.76,439.4 334.76,436.16 "/>
<rect x="315.15" y="402.82" width="20.32" height="3.23"/>
<rect x="315.15" y="385.07" width="9.73" height="3.07"/>
<polygon points="315.15,369.32 315.15,372.55 319.13,372.55 334.76,372.55 334.76,369.32 "/>
<g>
	<defs>
		<rect id="SVGID_3_" x="229" y="369.32" width="136.88" height="103.57"/>
	</defs>
	<clipPath id="SVGID_4_">
		<use xlink:href="#SVGID_3_"  style="overflow:visible;"/>
	</clipPath>
	<path class="st2" d="M319.13,372.55"/>
	<path class="st3" d="M319.13,405.88"/>
</g>
<rect x="315.57" y="418.41" width="9.73" height="3.07"/>
<g>
	<defs>
		<rect id="SVGID_5_" x="229" y="369.32" width="136.88" height="103.57"/>
	</defs>
	<clipPath id="SVGID_6_">
		<use xlink:href="#SVGID_5_"  style="overflow:visible;"/>
	</clipPath>
	<path class="st4" d="M319.13,405.88"/>
</g>
<rect x="315.57" y="485.26" width="9.73" height="3.07"/>
</svg>
